<?xml version="1.0" encoding="UTF-8"?>
<svg width="283px" height="87px" viewBox="0 0 283 87" version="1.1" xmlns="http://www.w3.org/2000/svg" xmlns:xlink="http://www.w3.org/1999/xlink">
    <!-- Generator: Sketch 46.2 (44496) - http://www.bohemiancoding.com/sketch -->
    <title>webtask-logo</title>
    <desc>Created with Sketch.</desc>
    <defs></defs>
    <g id="Page-1" stroke="none" stroke-width="1" fill="none" fill-rule="evenodd">
        <g id="webtask-logo" fill-rule="nonzero">
            <polygon id="Fill-1" fill="#5F3237" points="86.1061123 86.2883491 0.252980562 86.2883491 0.252980562 0.540781328 86.1061123 0.540781328"></polygon>
            <polygon id="Fill-2" fill="#E56E62" points="86.1061123 86.2883491 17.4236069 86.2883491 17.4236069 17.6902949 86.1061123 17.6902949"></polygon>
            <polygon id="Fill-3" fill="#ED955B" points="68.935486 69.1388356 17.4236069 69.1388356 17.4236069 17.6902949 68.935486 17.6902949"></polygon>
            <polygon id="Fill-4" fill="#F9E862" points="68.935486 69.1388356 34.5942333 69.1388356 34.5942333 34.8398084 68.935486 34.8398084"></polygon>
            <polygon id="Fill-5" fill="#FFFFFF" points="51.7648596 51.989322 34.5942333 51.989322 34.5942333 34.8398084 51.7648596 34.8398084"></polygon>
            <g id="Group-20" transform="translate(114.470842, 26.867571)" fill="#5F3237">
                <path d="M14.5747138,16.6739004 L14.4476512,16.6739004 C14.1511717,18.0275687 10.8904698,31.0114654 10.4669276,32.7035507 L5.42792117,32.7035507 C3.73432505,25.3018207 1.99780238,17.9006623 0.218925486,10.4566301 L4.62319114,10.4566301 C5.13144168,12.7409453 7.84153888,26.1055612 8.26508099,28.6008154 L8.39214363,28.6008154 C8.34978942,28.5585133 11.144595,16.8431089 12.7111285,10.4566301 L16.6918521,10.4566301 C17.284811,12.7409453 20.5878672,26.0632591 21.0537635,28.6008154 L21.1808261,28.6008154 C21.1384719,28.6008154 23.5520896,16.8431089 24.8644978,10.4566301 L28.8028672,10.4566301 C27.1086987,17.9006623 25.4574568,25.3018207 23.7215065,32.7035507 L18.4701566,32.7035507 C18.089541,31.0960696 14.9982559,18.9999461 14.5747138,16.6739004" id="Fill-6"></path>
                <path d="M44.5558294,19.8458744 L44.5558294,18.4081735 C44.5558294,15.2360852 43.4551922,13.2478849 40.533324,13.2478849 C37.9497171,13.2478849 36.4255378,15.2360852 36.4255378,19.8458744 L44.5558294,19.8458744 Z M49.1295119,22.6795457 L36.3831836,22.6795457 C36.3831836,27.1206981 37.865581,29.4890459 41.6763153,29.4890459 L48.1977192,29.4890459 L48.1977192,32.0689044 C46.2499978,32.57653 43.7510994,33.0418534 41.2527732,33.0418534 C35.663162,33.0418534 31.7677192,29.4467437 31.7677192,21.4533555 C31.7677192,13.290187 35.7055162,10.1186703 40.7027408,10.1186703 C45.9111641,10.1186703 49.1295119,13.079248 49.1295119,21.4110533 L49.1295119,22.6795457 Z" id="Fill-8"></path>
                <path d="M62.6378153,13.6710777 L58.9535713,13.6710777 L58.9535713,29.4892174 L62.6801695,29.4892174 C66.1949968,29.4892174 67.8038844,26.951661 67.8038844,21.453527 C67.8038844,16.1240298 66.1526425,13.6710777 62.6378153,13.6710777 L62.6378153,13.6710777 Z M58.9535713,6.81927541 C58.9535713,8.04603728 58.9535713,9.35683176 58.9117894,10.5835936 L58.9959255,10.5835936 C59.9700724,10.372083 61.8330853,10.1182702 63.2307743,10.1182702 C67.8038844,10.1182702 72.5469838,12.8256067 72.5469838,21.453527 C72.5469838,29.362311 68.6086145,33.0414533 62.2566274,33.0414533 C59.504176,33.0414533 57.1329125,32.5767015 54.549878,32.0690759 L54.549878,0.0526490066 L58.9535713,0.0526490066 L58.9535713,6.81927541 Z" id="Fill-10"></path>
                <path d="M80.4238369,3.47809284 L83.0492257,3.47809284 L83.0492257,10.4568016 L88.5541285,10.4568016 L88.5541285,13.6711921 L83.0492257,13.6711921 L83.0492257,26.528754 C83.0492257,28.1779656 83.8116015,29.4893317 85.8440313,29.4893317 L88.6811911,29.4893317 L88.6811911,32.0691902 C87.0299492,32.6614201 85.3787073,33.0415676 83.515122,33.0415676 C81.1438585,33.0415676 78.64496,31.8576795 78.64496,27.7126421 L78.64496,13.6711921 L75.6807376,13.6711921 L75.6807376,10.4568016 L79.0267203,10.4568016 L80.4238369,3.47809284 Z" id="Fill-12"></path>
                <path d="M103.883778,21.833846 L99.3524492,22.6375866 C97.1088207,23.0177341 96.3882268,24.1175896 96.3882268,26.4019048 C96.3882268,28.5581703 97.5741447,29.8272343 99.5218661,29.8272343 C100.877201,29.8272343 102.104901,29.5739931 103.883778,29.0240654 L103.883778,21.833846 Z M91.8998251,26.4442069 C91.8998251,22.5952844 94.3140151,20.4801778 98.8871253,19.8456457 L103.883778,19.1693833 L103.883778,16.674129 C103.883778,14.5167202 102.825495,13.6712492 100.284242,13.6712492 L93.5087127,13.6712492 L93.5087127,11.0067865 C95.5840691,10.4991609 98.2941663,10.1184417 100.66543,10.1184417 C105.662654,10.1184417 108.288043,12.7406023 108.288043,17.3080894 L108.288043,32.7032077 L104.814998,32.7032077 L104.434382,31.1809026 L104.349674,31.1809026 C103.460235,31.7731324 100.961909,32.9993226 98.1247495,32.9993226 C94.0169633,32.9993226 91.8998251,30.4194642 91.8998251,26.4442069 L91.8998251,26.4442069 Z" id="Fill-14"></path>
                <path d="M127.555031,26.2325819 C127.555031,29.9963285 124.844934,33.0415105 119.932418,33.0415105 C117.730571,33.0415105 115.613433,32.703665 113.919837,32.1960394 L113.919837,29.4892745 L120.144189,29.4892745 C122.007774,29.4892745 123.320183,28.4740233 123.320183,26.9517182 C123.320183,22.8489829 113.411586,23.4412128 113.411586,16.2086912 C113.411586,12.8673944 115.825204,10.1183273 120.737148,10.1183273 C122.642515,10.1183273 124.760226,10.4990465 126.157342,10.9220679 L126.157342,13.6711349 L120.313606,13.6711349 C118.492947,13.6711349 117.5188,14.4320016 117.5188,15.7433678 C117.5188,19.6768945 127.555031,19.3384775 127.555031,26.2325819" id="Fill-16"></path>
                <path d="M167.555031,26.2325819 C167.555031,29.9963285 164.844934,33.0415105 159.932418,33.0415105 C157.730571,33.0415105 155.613433,32.703665 153.919837,32.1960394 L153.919837,29.4892745 L160.144189,29.4892745 C162.007774,29.4892745 163.320183,28.4740233 163.320183,26.9517182 C163.320183,22.8489829 153.411586,23.4412128 153.411586,16.2086912 C153.411586,12.8673944 155.825204,10.1183273 160.737148,10.1183273 C162.642515,10.1183273 164.760226,10.4990465 166.157342,10.9220679 L166.157342,13.6711349 L160.313606,13.6711349 C158.492947,13.6711349 157.5188,14.4320016 157.5188,15.7433678 C157.5188,19.6768945 167.555031,19.3384775 167.555031,26.2325819" id="Fill-16"></path>
                <path d="M137.082726,20.8612399 L145.128309,10.4566301 L150.210242,10.4566301 L142.164086,20.8612399 L150.210242,32.7035507 L144.958892,32.7035507 L137.082726,20.8612399 Z M136.786246,32.7035507 L132.381981,32.7035507 L132.381981,0.0525918416 L136.786246,0.0525918416 L136.786246,32.7035507 Z" id="Fill-18"></path>
            </g>
        </g>
    </g>
</svg>